<svg id="Cost-Effective_Services" data-name="Cost-Effective Services" xmlns="http://www.w3.org/2000/svg" xmlns:xlink="http://www.w3.org/1999/xlink" width="121.572" height="120" viewBox="0 0 121.572 120">
  <defs>
    <clipPath id="clip-path">
      <rect id="Rectangle_19746" data-name="Rectangle 19746" width="121.572" height="120" fill="#fff"/>
    </clipPath>
  </defs>
  <g id="Group_13627" data-name="Group 13627" clip-path="url(#clip-path)">
    <path id="Path_26426" data-name="Path 26426" d="M0,12.324V9.48a3.423,3.423,0,0,0,.171-.425C1.754,2.96,5.581,0,11.89,0H67.568c.673,0,1.346-.009,2.018.016A10.842,10.842,0,0,1,79.811,12.73,34.977,34.977,0,0,1,78.4,17.064h1.275c5.9,0,11.793-.037,17.689.02A10.89,10.89,0,0,1,97.1,38.861c-1.989.018-3.977,0-6.013,0a3.336,3.336,0,0,0,2.437,2.44c14.04,4.88,23.058,14.488,26.87,28.86.553,2.085.789,4.253,1.172,6.383v5.925c-.317,1.937-.5,3.907-.972,5.8-3.831,15.321-13.243,25.7-28.439,30.018-15.02,4.269-28.356.423-39.627-10.382a2.569,2.569,0,0,0-1.962-.811c-8.983.026-17.966.093-26.948-.018a10.281,10.281,0,0,1-9.91-6.674c-1.82-4.3-.944-8.269,2.186-11.726a7.567,7.567,0,0,1,1.176-.87,10.962,10.962,0,0,1-.15-17.206,10.878,10.878,0,0,1-4.093-8.555,11.02,11.02,0,0,1,4.134-8.539c-.322-.269-.577-.453-.8-.67a10.557,10.557,0,0,1-3.327-7.369,10.894,10.894,0,0,1,10.867-11.34c2-.028,4,0,6.171,0A11.22,11.22,0,0,1,29.865,21.8H28.4c-5.817,0-11.634.041-17.451-.016a10.39,10.39,0,0,1-9.276-5.211A25.878,25.878,0,0,1,0,12.324M116.822,79.605A35.616,35.616,0,1,0,81.2,115.175a35.637,35.637,0,0,0,35.625-35.57M40.07,4.74q-14.481,0-28.962.005a6.165,6.165,0,1,0,.174,12.316q23.858.01,47.716,0c3.363,0,6.726.021,10.089-.009a6.156,6.156,0,1,0-.174-12.309Q54.491,4.717,40.07,4.74M67.994,21.8q-14.421,0-28.843,0a6.161,6.161,0,1,0,.007,12.314q21.662.024,43.324.006c4.866,0,9.733.018,14.6-.009a6.156,6.156,0,1,0-.125-12.309C87.3,21.788,77.647,21.8,67.994,21.8M83.716,39.526l.015-.463c-.842-.066-1.684-.189-2.526-.189q-22.911-.018-45.822-.009c-3.878,0-7.756-.02-11.634.008a6.156,6.156,0,1,0,.181,12.309c9.141.022,18.282,0,27.422.024a2.919,2.919,0,0,0,2.191-.854,39.325,39.325,0,0,1,24.075-10.8c2.019-.17,4.064-.025,6.1-.025M42.053,68.242,48.144,55.9c.149.1.12.062.091.062-8.3-.008-16.6-.069-24.9.011a6.133,6.133,0,0,0,.039,12.245c6.321.089,12.645.026,18.678.026m-.246,21.821c-5.944,0-12.154-.058-18.361.028a5.726,5.726,0,0,0-5.356,3.69,6.119,6.119,0,0,0,5.662,8.585c7.832.044,15.664.012,23.5.01.141,0,.281-.028.213-.021L41.807,90.062m-.728-4.746V72.992H40.1q-7.946,0-15.893,0c-3.855,0-6.651,2.624-6.632,6.2.018,3.52,2.8,6.116,6.593,6.122q7.946.012,15.893,0h1.018" transform="translate(0 0)" fill="#003d78"/>
    <path id="Path_26427" data-name="Path 26427" d="M237.386,224.894c-.131,2.278-.869,3.3-2.346,3.356-1.521.059-2.284-.937-2.537-3.373a10.637,10.637,0,0,1-5.181-3.071,8.67,8.67,0,0,1-2.315-5.563,2.378,2.378,0,1,1,4.732-.311,4.763,4.763,0,0,0,4.143,4.357,5.424,5.424,0,0,0,5.968-2.84c1.088-2.532-.666-5.389-3.693-5.935-1.2-.217-2.448-.2-3.636-.467a9.385,9.385,0,0,1-7.513-8.387,9.184,9.184,0,0,1,6.578-9.214c.754-.253,1.053-.544,1.033-1.38a2.351,2.351,0,1,1,4.691-.048c-.013.866.282,1.192,1.092,1.462a9.271,9.271,0,0,1,6.517,8.075,2.526,2.526,0,0,1-1.437,2.727,2.322,2.322,0,0,1-3.264-2.02,4.56,4.56,0,0,0-2.976-4.186,5.546,5.546,0,0,0-5.725.669,4.057,4.057,0,0,0-1.641,4.376,4.968,4.968,0,0,0,4.262,3.438,28,28,0,0,1,3.634.48,9.032,9.032,0,0,1,.652,17.508c-.331.115-.665.223-1.037.348" transform="translate(-153.764 -129.523)" fill="#e22718"/>
    <path id="Path_26428" data-name="Path 26428" d="M308.88,190.134a32.208,32.208,0,0,1-3.513,15.1,2.332,2.332,0,0,1-2.608,1.4,2.048,2.048,0,0,1-1.873-1.857,4.234,4.234,0,0,1,.488-2.125,25.033,25.033,0,0,0,2.7-12.585c-.591-9.805-5.212-17.17-13.766-22.056-.377-.215-.78-.387-1.145-.619a2.312,2.312,0,0,1-.952-3.071,2.2,2.2,0,0,1,3.1-1.071,44.452,44.452,0,0,1,6.543,4.221,29.937,29.937,0,0,1,11.024,22.663" transform="translate(-196.793 -111.366)" fill="#e22718"/>
    <path id="Path_26429" data-name="Path 26429" d="M158.959,218a31.451,31.451,0,0,1,3.281-14.177c.892-1.77,2.079-2.352,3.46-1.68,1.36.662,1.651,2.013.808,3.752a25.777,25.777,0,0,0,5.631,30.765c1.766,1.645,4,2.78,5.963,4.227.663.488,1.473,1.141,1.629,1.848a3.09,3.09,0,0,1-.764,2.283,2.148,2.148,0,0,1-2.738.229A30.927,30.927,0,0,1,158.959,218" transform="translate(-108.634 -137.958)" fill="#e22718"/>
    <path id="Path_26430" data-name="Path 26430" d="M265.159,156.574a2.44,2.44,0,1,1-2.45-2.356,2.4,2.4,0,0,1,2.45,2.356" transform="translate(-177.878 -105.394)" fill="#e22718"/>
    <path id="Path_26431" data-name="Path 26431" d="M239.768,333.872a2.367,2.367,0,1,1-2.455,2.348,2.393,2.393,0,0,1,2.455-2.348" transform="translate(-162.181 -228.171)" fill="#e22718"/>
  </g>
</svg>
