<svg id="Data-Driven_Insights_Analytics" data-name="Data-Driven Insights &amp; Analytics" xmlns="http://www.w3.org/2000/svg" width="120.153" height="120.051" viewBox="0 0 120.153 120.051">
  <path id="Path_1612" data-name="Path 1612" d="M120.153,84.727v6.335c-.156,1.072-.295,2.147-.472,3.216-1.867,11.286-7.785,19.382-18.584,23.667-6.114,2.426-12.507,2.323-18.848,1.8-7.458-.614-14.48-3.058-21.293-6.1a2.36,2.36,0,0,0-1.728-.017c-9.827,4.444-20.026,7.059-30.9,6.264-2.3-.168-4.566-.681-6.727-1.016l3.111-6.572c9.3,1.992,18.28.038,27.332-3.28A120.491,120.491,0,0,1,11.163,68.148c-3.344,9.06-5.28,18.063-3.292,27.319L1.444,98.526A41.609,41.609,0,0,1,.353,82.642a70.251,70.251,0,0,1,6.19-21.514,2.255,2.255,0,0,0,.017-1.986c-1.17-2.85-2.411-5.684-3.357-8.61C.47,42.071-.973,33.445.742,24.565,2.623,14.821,7.8,7.47,16.893,3.186,24.186-.251,31.9-.547,39.731.612A70.619,70.619,0,0,1,59.146,6.552a2.1,2.1,0,0,0,1.984,0C62.394,5.938,63.7,5.4,65,4.89,73.688,1.511,82.6-.6,92,.284c2.246.211,4.466.705,6.563,1.047l-3.091,6.54c-9.591-2.215-20.909.631-27.19,3.375a120.37,120.37,0,0,1,40.738,40.792c3.336-9.073,5.277-18.088,3.291-27.308l6.428-3.082c.149.62.365,1.333.487,2.061.329,1.958.619,3.922.924,5.884v5.4c-.107.846-.224,1.691-.32,2.538a70.736,70.736,0,0,1-6.192,21.517,2.269,2.269,0,0,0,.038,2.09A71.378,71.378,0,0,1,119.1,77.8c.427,2.3.709,4.62,1.057,6.931m-60-69.88a2.616,2.616,0,0,0-.281.094c-.21.1-.419.209-.625.322A109.542,109.542,0,0,0,15.3,59.114a1.831,1.831,0,0,0,.018,2.025,110.067,110.067,0,0,0,43.965,43.846,1.544,1.544,0,0,0,1.706-.077,109.617,109.617,0,0,0,43.961-44,1.562,1.562,0,0,0-.014-1.707A102.1,102.1,0,0,0,91.755,40.167,108.814,108.814,0,0,0,61.252,15.4c-.374-.2-.758-.385-1.1-.557M11.163,52.092A119.582,119.582,0,0,1,52,11.219c-.279-.134-.406-.209-.541-.259C43.974,8.214,36.346,6.54,28.287,7.27c-11.03,1-19.05,8.383-20.761,19.307-1.375,8.776.588,17.071,3.637,25.515M68.124,109.01c1.216.43,2.223.811,3.246,1.143,7.247,2.352,14.62,3.794,22.253,2.481,9.718-1.672,16.09-7.161,18.566-16.845a36.869,36.869,0,0,0-.141-17.308c-.762-3.437-1.839-6.8-2.775-10.2l-.373.014A119.52,119.52,0,0,1,68.124,109.01" transform="translate(0 0)" fill="#003d78"/>
  <path id="Path_1613" data-name="Path 1613" d="M443.376,15.12a7.035,7.035,0,1,1-7.085,6.924,7.042,7.042,0,0,1,7.085-6.924" transform="translate(-333.731 -11.566)" fill="#e22718"/>
  <path id="Path_1614" data-name="Path 1614" d="M29.183,443.294a7.034,7.034,0,1,1-7.012-7,7.047,7.047,0,0,1,7.012,7" transform="translate(-11.562 -333.734)" fill="#e22718"/>
  <path id="Path_1615" data-name="Path 1615" d="M168.508,200.3v-6.694H165.1v-7.014h3.343V179.3h-3.361v-7.014h3.378v-7.291h-3.355v-7.056h3.4V151.2h35.677V157.9h3.449v7.015h-3.343V172.2h3.361v7.014h-3.378v7.291h3.355v7.056h-3.4V200.3Z" transform="translate(-126.275 -115.658)" fill="#e22718"/>
  <rect id="Rectangle_18028" data-name="Rectangle 18028" width="120.153" height="120.05" transform="translate(0 0)" fill="none"/>
</svg>
