<svg id="Seamless_Integrations" data-name="Seamless Integrations" xmlns="http://www.w3.org/2000/svg" width="127.994" height="120" viewBox="0 0 127.994 120">
  <path id="Path_1568" data-name="Path 1568" d="M264.055,93.26q-4.53,7.886-9.062,15.77c-1.515,2.633-2.946,3.162-5.792,2.155-3.208-1.135-6.4-2.3-9.632-3.376a2.319,2.319,0,0,0-1.649.248q-4.02,2.236-7.956,4.62A2.355,2.355,0,0,0,228.924,114c-.726,3.5-1.347,7.028-2.018,10.543a3.782,3.782,0,0,1-4.052,3.436q-7.168.037-14.337,0a3.8,3.8,0,0,1-4.05-4.08q-.021-14.188,0-28.376c.005-2.994,2.214-4.616,5.123-3.826a16.413,16.413,0,0,0,20.661-13.026c2.048-11.355-8.934-21.477-20.07-18.564a6.867,6.867,0,0,1-3.6-.014,3.252,3.252,0,0,1-2.109-3.374q-.023-14.438.005-28.876a3.7,3.7,0,0,1,3.794-3.815q7.418-.069,14.836,0a3.7,3.7,0,0,1,3.782,3.3c.678,3.514,1.357,7.027,1.965,10.554a1.967,1.967,0,0,0,1.2,1.54c2.648,1.463,5.229,3.046,7.873,4.518a2.317,2.317,0,0,0,1.649.246c3.347-1.111,6.659-2.325,9.99-3.486,2.4-.837,3.972-.26,5.244,1.942q4.639,8.039,9.249,16.094v2a34.926,34.926,0,0,1-2.61,2.92c-2.313,2.088-4.691,4.106-7.088,6.1a1.909,1.909,0,0,0-.668,1.814c.083,2.989-.007,5.981.04,8.971a2.343,2.343,0,0,0,.574,1.563c2.346,2.114,4.8,4.109,7.143,6.225a34.808,34.808,0,0,1,2.61,2.92Z" transform="translate(-136.061 -16.004)" fill="#003d78"/>
  <path id="Path_1569" data-name="Path 1569" d="M23.5,143.842c0,1.5.02,2.822,0,4.143a3.637,3.637,0,0,1-3.821,3.862q-7.918.056-15.837,0A3.659,3.659,0,0,1,.017,147.97q-.032-7.857,0-15.715a3.715,3.715,0,0,1,3.828-3.892q7.918-.054,15.837,0a3.694,3.694,0,0,1,3.812,3.895c.024,1.319,0,2.638,0,4.025.5.031.861.074,1.223.074,5.528,0,11.057.018,16.585-.022a2.387,2.387,0,0,0,1.526-.561c3.767-3.7,7.487-7.444,11.218-11.179.141-.141.258-.306.5-.593-.917-.891-1.813-1.743-2.689-2.616-2.973-2.964-5.928-5.948-8.924-8.889a2.226,2.226,0,0,0-1.366-.649c-5.778-.043-11.556-.028-17.333-.023a6.62,6.62,0,0,0-.738.1c0,1.307.013,2.584,0,3.86a3.754,3.754,0,0,1-4.051,4.041q-7.669.027-15.338,0a3.791,3.791,0,0,1-4.094-4.139q-.015-7.67,0-15.341a3.7,3.7,0,0,1,3.935-4.017q7.793-.046,15.587,0A3.672,3.672,0,0,1,23.5,100.3c.017,1.282,0,2.564,0,3.971.54.024.98.06,1.421.06,6.027,0,12.055.036,18.082-.019A5.3,5.3,0,0,1,47.1,106c4.46,4.534,8.987,9,13.46,13.523a2.627,2.627,0,0,0,2.069.844c7.315-.033,14.632.009,21.947-.049,1.055-.008,1.638.342,1.672,1.3.061,1.718.02,3.443-.067,5.161-.043.838-.6,1.079-1.464,1.074-7.274-.041-14.548,0-21.822-.049a3.291,3.291,0,0,0-2.589,1.1c-4.379,4.439-8.821,8.815-13.2,13.259a5.3,5.3,0,0,1-4.094,1.7c-5.985-.057-11.971-.022-17.957-.022Z" transform="translate(-0.001 -64.091)" fill="#003d78"/>
  <path id="Path_1570" data-name="Path 1570" d="M60.608,16.025v7.483H58.04c-1.87,0-3.74-.041-5.608.013a4.621,4.621,0,0,1-3.661-1.51c-1.9-1.972-3.852-3.9-5.822-5.811a2.254,2.254,0,0,0-1.354-.675c-5.816-.044-11.632-.028-17.448-.023a5.27,5.27,0,0,0-.639.1c0,1.284.01,2.557,0,3.83-.025,2.618-1.47,4.066-4.112,4.074q-7.6.023-15.2,0C1.5,23.5.025,22.021.021,19.345q-.012-7.6,0-15.207A3.783,3.783,0,0,1,4.116.01q7.664-.02,15.329,0a3.74,3.74,0,0,1,4.061,4.02c.017,1.278,0,2.556,0,3.981h1.46c6.024,0,12.047.023,18.071-.016A5.128,5.128,0,0,1,47.03,9.653q2.754,2.883,5.648,5.631a2.867,2.867,0,0,0,1.713.708c2.024.086,4.054.033,6.217.033" transform="translate(-0.008 0)" fill="#e22718"/>
  <path id="Path_1571" data-name="Path 1571" d="M60.6,288.824V296.3c-1.742,0-3.469.08-5.185-.025a3.913,3.913,0,0,0-3.473,1.4c-1.6,1.8-3.4,3.411-5.075,5.145a4.79,4.79,0,0,1-3.677,1.5c-6.065-.024-12.13-.01-18.2-.01H23.5c0,1.4.013,2.674,0,3.949a3.745,3.745,0,0,1-4.032,4.051q-7.726.024-15.454,0a3.749,3.749,0,0,1-4-3.974q-.026-7.79,0-15.581a3.672,3.672,0,0,1,3.887-3.93q7.851-.043,15.7,0a3.651,3.651,0,0,1,3.889,3.913c.021,1.318,0,2.636,0,4.027.548.026.952.062,1.356.062,5.442,0,10.884.027,16.326-.031A2.942,2.942,0,0,0,43,296.054c2.023-1.91,3.971-3.9,5.924-5.884a4.25,4.25,0,0,1,3.221-1.354c2.777.026,5.554.008,8.455.008" transform="translate(-0.003 -192.334)" fill="#e22718"/>
  <rect id="Rectangle_18024" data-name="Rectangle 18024" width="127.991" height="120" transform="translate(0.001 0)" fill="none"/>
</svg>
